<svg xmlns="http://www.w3.org/2000/svg" style="position:absolute;width:0;height:0;overflow:hidden" aria-hidden="true" focusable="false">
<!-- Icons: Lucide (lucide-static v1.32.0), ISC License, https://lucide.dev -->
<defs>
<symbol id="i-bell" viewBox="0 0 24 24" fill="none" stroke="currentColor" stroke-width="1.5" stroke-linecap="round" stroke-linejoin="round" vector-effect="non-scaling-stroke"><path d="M10.268 21a2 2 0 0 0 3.464 0"/> <path d="M3.262 15.326A1 1 0 0 0 4 17h16a1 1 0 0 0 .74-1.673C19.41 13.956 18 12.499 18 8A6 6 0 0 0 6 8c0 4.499-1.411 5.956-2.738 7.326"/></symbol>
<symbol id="i-menu" viewBox="0 0 24 24" fill="none" stroke="currentColor" stroke-width="1.5" stroke-linecap="round" stroke-linejoin="round" vector-effect="non-scaling-stroke"><path d="M4 5h16"/> <path d="M4 12h16"/> <path d="M4 19h16"/></symbol>
<symbol id="i-search" viewBox="0 0 24 24" fill="none" stroke="currentColor" stroke-width="1.5" stroke-linecap="round" stroke-linejoin="round" vector-effect="non-scaling-stroke"><path d="m21 21-4.34-4.34"/> <circle cx="11" cy="11" r="8"/></symbol>
<symbol id="i-list-filter" viewBox="0 0 24 24" fill="none" stroke="currentColor" stroke-width="1.5" stroke-linecap="round" stroke-linejoin="round" vector-effect="non-scaling-stroke"><path d="M2 5h20"/> <path d="M6 12h12"/> <path d="M9 19h6"/></symbol>
<symbol id="i-chevron-down" viewBox="0 0 24 24" fill="none" stroke="currentColor" stroke-width="1.5" stroke-linecap="round" stroke-linejoin="round" vector-effect="non-scaling-stroke"><path d="m6 9 6 6 6-6"/></symbol>
<symbol id="i-flag" viewBox="0 0 24 24" fill="none" stroke="currentColor" stroke-width="1.5" stroke-linecap="round" stroke-linejoin="round" vector-effect="non-scaling-stroke"><path d="M4 22V4a1 1 0 0 1 .4-.8A6 6 0 0 1 8 2c3 0 5 2 7.333 2q2 0 3.067-.8A1 1 0 0 1 20 4v10a1 1 0 0 1-.4.8A6 6 0 0 1 16 16c-3 0-5-2-8-2a6 6 0 0 0-4 1.528"/></symbol>
<symbol id="i-plus" viewBox="0 0 24 24" fill="none" stroke="currentColor" stroke-width="1.5" stroke-linecap="round" stroke-linejoin="round" vector-effect="non-scaling-stroke"><path d="M5 12h14"/> <path d="M12 5v14"/></symbol>
<symbol id="i-map-pin" viewBox="0 0 24 24" fill="none" stroke="currentColor" stroke-width="1.5" stroke-linecap="round" stroke-linejoin="round" vector-effect="non-scaling-stroke"><path d="M20 10c0 4.993-5.539 10.193-7.399 11.799a1 1 0 0 1-1.202 0C9.539 20.193 4 14.993 4 10a8 8 0 0 1 16 0"/> <circle cx="12" cy="10" r="3"/></symbol>
<symbol id="i-check" viewBox="0 0 24 24" fill="none" stroke="currentColor" stroke-width="1.5" stroke-linecap="round" stroke-linejoin="round" vector-effect="non-scaling-stroke"><path d="M20 6 9 17l-5-5"/></symbol>
<symbol id="i-file-text" viewBox="0 0 24 24" fill="none" stroke="currentColor" stroke-width="1.5" stroke-linecap="round" stroke-linejoin="round" vector-effect="non-scaling-stroke"><path d="M6 22a2 2 0 0 1-2-2V4a2 2 0 0 1 2-2h8a2.4 2.4 0 0 1 1.704.706l3.588 3.588A2.4 2.4 0 0 1 20 8v12a2 2 0 0 1-2 2z"/> <path d="M14 2v5a1 1 0 0 0 1 1h5"/> <path d="M10 9H8"/> <path d="M16 13H8"/> <path d="M16 17H8"/></symbol>
<symbol id="i-download" viewBox="0 0 24 24" fill="none" stroke="currentColor" stroke-width="1.5" stroke-linecap="round" stroke-linejoin="round" vector-effect="non-scaling-stroke"><path d="M12 15V3"/> <path d="M21 15v4a2 2 0 0 1-2 2H5a2 2 0 0 1-2-2v-4"/> <path d="m7 10 5 5 5-5"/></symbol>
<symbol id="i-database" viewBox="0 0 24 24" fill="none" stroke="currentColor" stroke-width="1.5" stroke-linecap="round" stroke-linejoin="round" vector-effect="non-scaling-stroke"><ellipse cx="12" cy="5" rx="9" ry="3"/> <path d="M3 5V19A9 3 0 0 0 21 19V5"/> <path d="M3 12A9 3 0 0 0 21 12"/></symbol>
<symbol id="i-info" viewBox="0 0 24 24" fill="none" stroke="currentColor" stroke-width="1.5" stroke-linecap="round" stroke-linejoin="round" vector-effect="non-scaling-stroke"><circle cx="12" cy="12" r="10"/> <path d="M12 16v-4"/> <path d="M12 8h.01"/></symbol>
<symbol id="i-triangle-alert" viewBox="0 0 24 24" fill="none" stroke="currentColor" stroke-width="1.5" stroke-linecap="round" stroke-linejoin="round" vector-effect="non-scaling-stroke"><path d="m21.73 18-8-14a2 2 0 0 0-3.48 0l-8 14A2 2 0 0 0 4 21h16a2 2 0 0 0 1.73-3"/> <path d="M12 9v4"/> <path d="M12 17h.01"/></symbol>
<symbol id="i-play" viewBox="0 0 24 24" fill="none" stroke="currentColor" stroke-width="1.5" stroke-linecap="round" stroke-linejoin="round" vector-effect="non-scaling-stroke"><path d="M5 5a2 2 0 0 1 3.008-1.728l11.997 6.998a2 2 0 0 1 .003 3.458l-12 7A2 2 0 0 1 5 19z"/></symbol>
<symbol id="i-sun" viewBox="0 0 24 24" fill="none" stroke="currentColor" stroke-width="1.5" stroke-linecap="round" stroke-linejoin="round" vector-effect="non-scaling-stroke"><circle cx="12" cy="12" r="4"/> <path d="M12 2v2"/> <path d="M12 20v2"/> <path d="m4.93 4.93 1.41 1.41"/> <path d="m17.66 17.66 1.41 1.41"/> <path d="M2 12h2"/> <path d="M20 12h2"/> <path d="m6.34 17.66-1.41 1.41"/> <path d="m19.07 4.93-1.41 1.41"/></symbol>
<symbol id="i-moon" viewBox="0 0 24 24" fill="none" stroke="currentColor" stroke-width="1.5" stroke-linecap="round" stroke-linejoin="round" vector-effect="non-scaling-stroke"><path d="M20.985 12.486a9 9 0 1 1-9.473-9.472c.405-.022.617.46.402.803a6 6 0 0 0 8.268 8.268c.344-.215.825-.004.803.401"/></symbol>
<symbol id="i-external-link" viewBox="0 0 24 24" fill="none" stroke="currentColor" stroke-width="1.5" stroke-linecap="round" stroke-linejoin="round" vector-effect="non-scaling-stroke"><path d="M15 3h6v6"/> <path d="M10 14 21 3"/> <path d="M18 13v6a2 2 0 0 1-2 2H5a2 2 0 0 1-2-2V8a2 2 0 0 1 2-2h6"/></symbol>
<symbol id="i-arrow-left-right" viewBox="0 0 24 24" fill="none" stroke="currentColor" stroke-width="1.5" stroke-linecap="round" stroke-linejoin="round" vector-effect="non-scaling-stroke"><path d="M8 3 4 7l4 4"/> <path d="M4 7h16"/> <path d="m16 21 4-4-4-4"/> <path d="M20 17H4"/></symbol>
<symbol id="i-chart-column" viewBox="0 0 24 24" fill="none" stroke="currentColor" stroke-width="1.5" stroke-linecap="round" stroke-linejoin="round" vector-effect="non-scaling-stroke"><path d="M3 3v16a2 2 0 0 0 2 2h16"/> <path d="M18 17V9"/> <path d="M13 17V5"/> <path d="M8 17v-3"/></symbol>
<symbol id="i-crosshair" viewBox="0 0 24 24" fill="none" stroke="currentColor" stroke-width="1.5" stroke-linecap="round" stroke-linejoin="round" vector-effect="non-scaling-stroke"><circle cx="12" cy="12" r="10"/> <line x1="22" x2="18" y1="12" y2="12"/> <line x1="6" x2="2" y1="12" y2="12"/> <line x1="12" x2="12" y1="6" y2="2"/> <line x1="12" x2="12" y1="22" y2="18"/></symbol>
<symbol id="i-house" viewBox="0 0 24 24" fill="none" stroke="currentColor" stroke-width="1.5" stroke-linecap="round" stroke-linejoin="round" vector-effect="non-scaling-stroke"><path d="M15 21v-8a1 1 0 0 0-1-1h-4a1 1 0 0 0-1 1v8"/> <path d="M3 10a2 2 0 0 1 .709-1.528l7-6a2 2 0 0 1 2.582 0l7 6A2 2 0 0 1 21 10v9a2 2 0 0 1-2 2H5a2 2 0 0 1-2-2z"/></symbol>
<symbol id="i-sliders-horizontal" viewBox="0 0 24 24" fill="none" stroke="currentColor" stroke-width="1.5" stroke-linecap="round" stroke-linejoin="round" vector-effect="non-scaling-stroke"><path d="M10 5H3"/> <path d="M12 19H3"/> <path d="M14 3v4"/> <path d="M16 17v4"/> <path d="M21 12h-9"/> <path d="M21 19h-5"/> <path d="M21 5h-7"/> <path d="M8 10v4"/> <path d="M8 12H3"/></symbol>
<symbol id="i-route" viewBox="0 0 24 24" fill="none" stroke="currentColor" stroke-width="1.5" stroke-linecap="round" stroke-linejoin="round" vector-effect="non-scaling-stroke"><circle cx="6" cy="19" r="3"/> <path d="M9 19h8.5a3.5 3.5 0 0 0 0-7h-11a3.5 3.5 0 0 1 0-7H15"/> <circle cx="18" cy="5" r="3"/></symbol>
<symbol id="i-message-square-more" viewBox="0 0 24 24" fill="none" stroke="currentColor" stroke-width="1.5" stroke-linecap="round" stroke-linejoin="round" vector-effect="non-scaling-stroke"><path d="M22 17a2 2 0 0 1-2 2H6.828a2 2 0 0 0-1.414.586l-2.202 2.202A.71.71 0 0 1 2 21.286V5a2 2 0 0 1 2-2h16a2 2 0 0 1 2 2z"/> <path d="M12 11h.01"/> <path d="M16 11h.01"/> <path d="M8 11h.01"/></symbol>
<symbol id="i-star" viewBox="0 0 24 24" fill="none" stroke="currentColor" stroke-width="1.5" stroke-linecap="round" stroke-linejoin="round" vector-effect="non-scaling-stroke"><path d="M11.525 2.295a.53.53 0 0 1 .95 0l2.31 4.679a2.123 2.123 0 0 0 1.595 1.16l5.166.756a.53.53 0 0 1 .294.904l-3.736 3.638a2.123 2.123 0 0 0-.611 1.878l.882 5.14a.53.53 0 0 1-.771.56l-4.618-2.428a2.122 2.122 0 0 0-1.973 0L6.396 21.01a.53.53 0 0 1-.77-.56l.881-5.139a2.122 2.122 0 0 0-.611-1.879L2.16 9.795a.53.53 0 0 1 .294-.906l5.165-.755a2.122 2.122 0 0 0 1.597-1.16z"/></symbol>
<symbol id="i-chart-line" viewBox="0 0 24 24" fill="none" stroke="currentColor" stroke-width="1.5" stroke-linecap="round" stroke-linejoin="round" vector-effect="non-scaling-stroke"><path d="M3 3v16a2 2 0 0 0 2 2h16"/> <path d="m19 9-5 5-4-4-3 3"/></symbol>
<symbol id="i-unfold-horizontal" viewBox="0 0 24 24" fill="none" stroke="currentColor" stroke-width="1.5" stroke-linecap="round" stroke-linejoin="round" vector-effect="non-scaling-stroke"><path d="M16 12h6"/> <path d="M8 12H2"/> <path d="M12 2v2"/> <path d="M12 8v2"/> <path d="M12 14v2"/> <path d="M12 20v2"/> <path d="m19 15 3-3-3-3"/> <path d="m5 9-3 3 3 3"/></symbol>
<symbol id="i-shield-check" viewBox="0 0 24 24" fill="none" stroke="currentColor" stroke-width="1.5" stroke-linecap="round" stroke-linejoin="round" vector-effect="non-scaling-stroke"><path d="M20 13c0 5-3.5 7.5-7.66 8.95a1 1 0 0 1-.67-.01C7.5 20.5 4 18 4 13V6a1 1 0 0 1 1-1c2 0 4.5-1.2 6.24-2.72a1.17 1.17 0 0 1 1.52 0C14.51 3.81 17 5 19 5a1 1 0 0 1 1 1z"/> <path d="m9 12 2 2 4-4"/></symbol>
<symbol id="i-building-2" viewBox="0 0 24 24" fill="none" stroke="currentColor" stroke-width="1.5" stroke-linecap="round" stroke-linejoin="round" vector-effect="non-scaling-stroke"><path d="M10 12h4"/> <path d="M10 8h4"/> <path d="M14 21v-3a2 2 0 0 0-4 0v3"/> <path d="M6 10H4a2 2 0 0 0-2 2v7a2 2 0 0 0 2 2h16a2 2 0 0 0 2-2V9a2 2 0 0 0-2-2h-2"/> <path d="M6 21V5a2 2 0 0 1 2-2h8a2 2 0 0 1 2 2v16"/></symbol>
<symbol id="i-users" viewBox="0 0 24 24" fill="none" stroke="currentColor" stroke-width="1.5" stroke-linecap="round" stroke-linejoin="round" vector-effect="non-scaling-stroke"><path d="M16 21v-2a4 4 0 0 0-4-4H6a4 4 0 0 0-4 4v2"/> <path d="M16 3.128a4 4 0 0 1 0 7.744"/> <path d="M22 21v-2a4 4 0 0 0-3-3.87"/> <circle cx="9" cy="7" r="4"/></symbol>
<symbol id="i-arrow-right" viewBox="0 0 24 24" fill="none" stroke="currentColor" stroke-width="1.5" stroke-linecap="round" stroke-linejoin="round" vector-effect="non-scaling-stroke"><path d="M5 12h14"/> <path d="m12 5 7 7-7 7"/></symbol>
</defs>
</svg>
